<svg width="40" height="40" viewBox="0 0 40 40" fill="none" xmlns="http://www.w3.org/2000/svg">
<path d="M21.4999 21.6352V26.8648C22.3632 26.7053 23.1491 26.4092 23.7752 25.9997C24.7396 25.3692 24.9999 24.7041 24.9999 24.25C24.9999 23.7959 24.7396 23.1308 23.7752 22.5002C23.1491 22.0908 22.3632 21.7947 21.4999 21.6352Z" fill="#FFBC08"/>
<path d="M16.6592 17.2389C16.7667 17.3509 16.8893 17.4611 17.0281 17.5683C17.4439 17.8897 17.9471 18.1355 18.5 18.2938V13.2063C18.3509 13.249 18.2054 13.298 18.0643 13.3532C17.9744 13.3883 17.8863 13.426 17.8001 13.466C17.5199 13.5963 17.2604 13.7523 17.0281 13.9318C16.2732 14.5151 16 15.1851 16 15.7501C16 16.1177 16.1157 16.5299 16.4046 16.9337C16.478 17.0362 16.5625 17.1383 16.6592 17.2389Z" fill="#FFBC08"/>
<path fill-rule="evenodd" clip-rule="evenodd" d="M36 20C36 28.8366 28.8366 36 20 36C11.1634 36 4 28.8366 4 20C4 11.1634 11.1634 4 20 4C28.8366 4 36 11.1634 36 20ZM19.9999 8C20.8283 8 21.4999 8.67157 21.4999 9.5V10.1317C22.6845 10.3421 23.8364 10.8085 24.8061 11.5579C25.6586 12.2166 26.2933 13.0367 26.6564 13.9579C26.9602 14.7286 26.5817 15.5997 25.811 15.9035C25.0402 16.2073 24.1692 15.8287 23.8654 15.058C23.7199 14.6887 23.44 14.2935 22.9718 13.9317C22.5559 13.6104 22.0528 13.3645 21.4999 13.2062V18.5989C22.896 18.7847 24.2654 19.2364 25.417 19.9893C26.991 21.0185 27.9999 22.5287 27.9999 24.25C27.9999 25.9713 26.991 27.4815 25.417 28.5107C24.2654 29.2636 22.896 29.7153 21.4999 29.9011V30.5C21.4999 31.3284 20.8283 32 19.9999 32C19.1715 32 18.4999 31.3284 18.4999 30.5V29.9011C17.1037 29.7153 15.7344 29.2636 14.5828 28.5107C13.6177 27.8796 12.8674 27.0752 12.4267 26.1343C12.0754 25.3841 12.3987 24.4911 13.149 24.1397C13.8992 23.7884 14.7922 24.1117 15.1436 24.8619C15.3052 25.207 15.6338 25.6135 16.2246 25.9997C16.8507 26.4092 17.6366 26.7053 18.4999 26.8648V21.3683C17.3152 21.1579 16.1633 20.6915 15.1936 19.9421C13.8007 18.8658 12.9999 17.3603 12.9999 15.75C12.9999 14.1397 13.8007 12.6342 15.1936 11.5579C16.1633 10.8085 17.3152 10.3421 18.4999 10.1317V9.5C18.4999 8.67157 19.1715 8 19.9999 8Z" fill="#FFBC08"/>
</svg>
