<svg width="40" height="40" viewBox="0 0 40 40" fill="none" xmlns="http://www.w3.org/2000/svg">
<path d="M24 8.93382C24 8.12318 24.5246 7.43232 25.1177 6.8797C25.6696 6.36538 26 5.71163 26 5C26 3.34315 24.2091 2 22 2C19.7909 2 18 3.34315 18 5C18 5.72401 18.342 6.38811 18.9114 6.90642C19.4932 7.43601 20 8.10771 20 8.89444C20 10.0139 19.0701 10.9119 17.9529 10.8415C15.9211 10.7134 13.9104 10.5086 11.9237 10.2299C11.4574 10.1645 10.9875 10.3218 10.6546 10.6547C10.3217 10.9876 10.1644 11.4575 10.2298 11.9237C10.5085 13.9105 10.7134 15.9212 10.8414 17.9529C10.9119 19.0701 10.0139 20 8.89442 20C8.1077 20 7.43601 19.4932 6.90644 18.9114C6.38813 18.342 5.72402 18 5 18C3.34315 18 2 19.7909 2 22C2 24.2091 3.34315 26 5 26C5.71163 26 6.3654 25.6696 6.87972 25.1176C7.43232 24.5246 8.12317 24 8.9338 24C10.0674 24 10.985 24.9266 10.9419 26.0593C10.8459 28.5813 10.6317 31.0727 10.3048 33.5281C10.1959 34.3457 10.7677 35.0979 11.5847 35.2117C13.6832 35.504 15.8068 35.7169 17.9525 35.8472C19.0705 35.9151 20 35.0163 20 33.8963C20 33.1084 19.4923 32.4358 18.91 31.9052C18.3414 31.387 18 30.7234 18 30C18 28.3431 19.7909 27 22 27C24.2091 27 26 28.3431 26 30C26 30.7115 25.6698 31.3651 25.118 31.8794C24.5248 32.4323 24 33.1234 24 33.9343C24 35.0679 24.9264 35.9856 26.0592 35.944C28.7348 35.8459 31.3781 35.6195 33.983 35.2707C34.6535 35.181 35.1809 34.6535 35.2707 33.983C35.6194 31.3781 35.8458 28.7348 35.944 26.0592C35.9855 24.9263 35.0678 24 33.9342 24C33.1234 24 32.4323 24.5248 31.8794 25.118C31.3651 25.6698 30.7115 26 30 26C28.3431 26 27 24.2091 27 22C27 19.7909 28.3431 18 30 18C30.7234 18 31.3871 18.3414 31.9052 18.91C32.4358 19.4923 33.1084 20 33.8963 20C35.0163 20 35.9151 19.0705 35.8472 17.9526C35.7168 15.8069 35.5039 13.6832 35.2116 11.5848C35.0978 10.7678 34.3457 10.196 33.528 10.3049C31.0727 10.6318 28.5813 10.8459 26.0594 10.9419C24.9266 10.9851 24 10.0674 24 8.93382Z" fill="#FFBC08"/>
</svg>
