<svg width="40" height="40" viewBox="0 0 40 40" fill="none" xmlns="http://www.w3.org/2000/svg">
<path d="M4 9C4 6.23858 6.23858 4 9 4H31C33.7614 4 36 6.23858 36 9C36 11.7614 33.7614 14 31 14H9C6.23857 14 4 11.7614 4 9Z" fill="#FFBC08"/>
<path d="M5.5 18.1667C4.67157 18.1667 4 18.8383 4 19.6667C4 20.4952 4.67157 21.1667 5.5 21.1667H34.5C35.3284 21.1667 36 20.4952 36 19.6667C36 18.8383 35.3284 18.1667 34.5 18.1667H5.5Z" fill="#FFBC08"/>
<path d="M5.5 25.3267C4.67157 25.3267 4 25.9982 4 26.8267C4 27.6551 4.67157 28.3267 5.5 28.3267H34.5C35.3284 28.3267 36 27.6551 36 26.8267C36 25.9982 35.3284 25.3267 34.5 25.3267H5.5Z" fill="#FFBC08"/>
<path d="M5.5 32.5001C4.67157 32.5001 4 33.1717 4 34.0001C4 34.8285 4.67157 35.5001 5.5 35.5001H34.5C35.3284 35.5001 36 34.8285 36 34.0001C36 33.1717 35.3284 32.5001 34.5 32.5001H5.5Z" fill="#FFBC08"/>
</svg>
