<svg width="40" height="40" viewBox="0 0 40 40" fill="none" xmlns="http://www.w3.org/2000/svg">
<path fill-rule="evenodd" clip-rule="evenodd" d="M9.8601 4.62091C13.1832 4.21101 16.5673 4 20 4C23.4327 4 26.8168 4.21101 30.1399 4.62091C32.3884 4.89827 34 6.82748 34 9.03322V34.5C34 35.0156 33.7352 35.495 33.2989 35.7696C32.8625 36.0442 32.3157 36.0754 31.8509 35.8523L26.25 33.1639L20.6491 35.8523C20.2388 36.0492 19.7612 36.0492 19.3509 35.8523L13.75 33.1638L8.1491 35.8523C7.6843 36.0754 7.13751 36.0442 6.70114 35.7696C6.26477 35.495 6 35.0156 6 34.5V9.03322C6 6.82747 7.61157 4.89827 9.8601 4.62091ZM27.5607 14.5607C28.1464 13.9749 28.1464 13.0251 27.5607 12.4393C26.9749 11.8536 26.0251 11.8536 25.4393 12.4393L12.4393 25.4393C11.8536 26.0251 11.8536 26.9749 12.4393 27.5607C13.0251 28.1464 13.9749 28.1464 14.5607 27.5607L27.5607 14.5607ZM18 16C18 17.1046 17.1046 18 16 18C14.8954 18 14 17.1046 14 16C14 14.8954 14.8954 14 16 14C17.1046 14 18 14.8954 18 16ZM24 26C25.1046 26 26 25.1046 26 24C26 22.8954 25.1046 22 24 22C22.8954 22 22 22.8954 22 24C22 25.1046 22.8954 26 24 26Z" fill="#FFBC08"/>
</svg>
