<svg width="233" height="75" viewBox="0 0 233 75" fill="none" xmlns="http://www.w3.org/2000/svg">
<ellipse cx="24.4948" cy="34.8323" rx="16.3913" ry="31.5217" transform="rotate(16.1108 24.4948 34.8323)" fill="#9BFFAC"/>
<ellipse cx="42.9574" cy="40.1648" rx="16.3913" ry="31.5217" transform="rotate(16.1108 42.9574 40.1648)" fill="#DCC5FF"/>
<path d="M40.8118 12.9641C43.1698 19.6072 43.1574 29.2876 40.2421 39.3806C37.3269 49.4735 32.1758 57.6697 26.6389 62.0324C24.2812 55.3894 24.2943 45.7088 27.2095 35.6162C30.1246 25.5237 35.2751 17.3269 40.8118 12.9641Z" fill="white"/>
<path d="M99.1208 16.417C99.1208 16.417 84.8928 49.0035 79.3852 40.7422C74.1074 32.8254 78.0084 16.417 78.0084 16.417H67.4521V58.6418H80.7621L109.677 16.417H99.1208Z" fill="white"/>
<path d="M219.521 17.3518C226.084 14.0104 232.68 14.3149 232.68 24.2192V59.5596H222.123C222.135 59.5115 226.017 43.1395 220.747 35.2344C215.244 26.9814 201.039 59.4957 201.011 59.5596H190.455V17.3347H201.011V33.8575C201.021 33.8492 205.172 30.3188 210.649 24.2192C213 21.6021 216.099 19.1489 219.228 17.5042L219.37 17.3347L219.521 17.3518Z" fill="white"/>
<path d="M135.154 43.8305H144.099C141.936 53.1164 134.966 59.5597 124.339 59.5597C111.55 59.5597 102.333 51.3161 102.333 38.1453C102.333 24.9744 111.644 15.499 124.057 15.499C137.599 15.499 144.558 24.9744 144.558 36.3449V40.4194H113.43C113.807 46.5784 118.603 50.9371 124.715 50.9371C130.264 50.9371 133.555 48.5682 135.154 43.8305ZM113.619 33.3128H133.555C133.179 28.4803 130.264 23.8374 123.963 23.8374C117.756 23.8374 114.653 28.1013 113.619 33.3128Z" fill="white"/>
<path d="M179.215 43.8305H188.16C185.997 53.1164 179.027 59.5597 168.4 59.5597C155.61 59.5597 146.394 51.3161 146.394 38.1453C146.394 24.9744 155.704 15.499 168.118 15.499C181.66 15.499 188.619 24.9744 188.619 36.3449V40.4194H157.491C157.867 46.5784 162.663 50.9371 168.776 50.9371C174.324 50.9371 177.616 48.5682 179.215 43.8305ZM157.679 33.3128H177.616C177.24 28.4803 174.324 23.8374 168.024 23.8374C161.817 23.8374 158.714 28.1013 157.679 33.3128Z" fill="white"/>
</svg>
